<svg width="170" height="50" viewBox="0 0 170 50" fill="none" xmlns="http://www.w3.org/2000/svg">
<rect width="170" height="50" rx="8" fill="#4579CB"/>
<path d="M42.4688 32H35.75V20.7969H42.2109V22.8516H38.2734V25.3438H41.9375V27.3906H38.2734V29.9531H42.4688V32ZM51.75 24L49.1094 27.875L51.7344 32H48.8906L47.7344 29.8438C47.6406 29.6719 47.5286 29.4297 47.3984 29.1172H47.3672C47.2891 29.3359 47.1823 29.5703 47.0469 29.8203L45.8828 32H43.0469L45.75 28.0156L43.2109 24H46.0703L47.2109 26.2422C47.362 26.5391 47.4688 26.7891 47.5312 26.9922H47.5625C47.6458 26.7474 47.7578 26.4922 47.8984 26.2266L49.0625 24H51.75ZM55.3672 31.0703H55.3359V35.6797H52.8672V24H55.3359V25.2031H55.3672C55.9766 24.2708 56.8333 23.8047 57.9375 23.8047C58.974 23.8047 59.7734 24.1615 60.3359 24.875C60.9036 25.5833 61.1875 26.5495 61.1875 27.7734C61.1875 29.1068 60.8568 30.1771 60.1953 30.9844C59.5391 31.7917 58.6641 32.1953 57.5703 32.1953C56.6068 32.1953 55.8724 31.8203 55.3672 31.0703ZM55.2969 27.7891V28.4297C55.2969 28.9818 55.4427 29.4323 55.7344 29.7812C56.026 30.1302 56.4089 30.3047 56.8828 30.3047C57.4453 30.3047 57.8802 30.0885 58.1875 29.6562C58.5 29.2188 58.6562 28.6016 58.6562 27.8047C58.6562 26.3984 58.1094 25.6953 57.0156 25.6953C56.5104 25.6953 56.0964 25.888 55.7734 26.2734C55.4557 26.6536 55.2969 27.1589 55.2969 27.7891ZM65.2578 32H62.7891V20.1562H65.2578V32ZM71.1484 32.1953C69.8151 32.1953 68.7656 31.8229 68 31.0781C67.2396 30.3281 66.8594 29.3125 66.8594 28.0312C66.8594 26.7083 67.2552 25.6745 68.0469 24.9297C68.8385 24.1797 69.9089 23.8047 71.2578 23.8047C72.5859 23.8047 73.6276 24.1797 74.3828 24.9297C75.138 25.6745 75.5156 26.6615 75.5156 27.8906C75.5156 29.2188 75.125 30.2682 74.3438 31.0391C73.5677 31.8099 72.5026 32.1953 71.1484 32.1953ZM71.2109 25.6953C70.6276 25.6953 70.1745 25.8958 69.8516 26.2969C69.5286 26.6979 69.3672 27.2656 69.3672 28C69.3672 29.5365 69.987 30.3047 71.2266 30.3047C72.4089 30.3047 73 29.5156 73 27.9375C73 26.4427 72.4036 25.6953 71.2109 25.6953ZM82.3359 26.2266C82.0391 26.0651 81.6927 25.9844 81.2969 25.9844C80.7604 25.9844 80.3411 26.1823 80.0391 26.5781C79.737 26.9688 79.5859 27.5026 79.5859 28.1797V32H77.1172V24H79.5859V25.4844H79.6172C80.0078 24.401 80.7109 23.8594 81.7266 23.8594C81.987 23.8594 82.1901 23.8906 82.3359 23.9531V26.2266ZM90.6172 28.7031H85.3984C85.4818 29.8646 86.2135 30.4453 87.5938 30.4453C88.474 30.4453 89.2474 30.237 89.9141 29.8203V31.6016C89.1745 31.9974 88.2135 32.1953 87.0312 32.1953C85.7396 32.1953 84.737 31.8385 84.0234 31.125C83.3099 30.4062 82.9531 29.4062 82.9531 28.125C82.9531 26.7969 83.3385 25.7448 84.1094 24.9688C84.8802 24.1927 85.8281 23.8047 86.9531 23.8047C88.1198 23.8047 89.0208 24.151 89.6562 24.8438C90.2969 25.5365 90.6172 26.4766 90.6172 27.6641V28.7031ZM88.3281 27.1875C88.3281 26.0417 87.8646 25.4688 86.9375 25.4688C86.5417 25.4688 86.1979 25.6328 85.9062 25.9609C85.6198 26.2891 85.4453 26.6979 85.3828 27.1875H88.3281ZM109.516 32H107.023V25.2969C107.023 24.5729 107.055 23.7734 107.117 22.8984H107.055C106.924 23.5859 106.807 24.0807 106.703 24.3828L104.078 32H102.016L99.3438 24.4609C99.2708 24.2578 99.1536 23.737 98.9922 22.8984H98.9219C98.9896 24.0026 99.0234 24.9714 99.0234 25.8047V32H96.75V20.7969H100.445L102.734 27.4375C102.917 27.9688 103.049 28.5026 103.133 29.0391H103.18C103.32 28.4193 103.469 27.8802 103.625 27.4219L105.914 20.7969H109.516V32ZM115.633 32.1953C114.299 32.1953 113.25 31.8229 112.484 31.0781C111.724 30.3281 111.344 29.3125 111.344 28.0312C111.344 26.7083 111.74 25.6745 112.531 24.9297C113.323 24.1797 114.393 23.8047 115.742 23.8047C117.07 23.8047 118.112 24.1797 118.867 24.9297C119.622 25.6745 120 26.6615 120 27.8906C120 29.2188 119.609 30.2682 118.828 31.0391C118.052 31.8099 116.987 32.1953 115.633 32.1953ZM115.695 25.6953C115.112 25.6953 114.659 25.8958 114.336 26.2969C114.013 26.6979 113.852 27.2656 113.852 28C113.852 29.5365 114.471 30.3047 115.711 30.3047C116.893 30.3047 117.484 29.5156 117.484 27.9375C117.484 26.4427 116.888 25.6953 115.695 25.6953ZM126.82 26.2266C126.523 26.0651 126.177 25.9844 125.781 25.9844C125.245 25.9844 124.826 26.1823 124.523 26.5781C124.221 26.9688 124.07 27.5026 124.07 28.1797V32H121.602V24H124.07V25.4844H124.102C124.492 24.401 125.195 23.8594 126.211 23.8594C126.471 23.8594 126.674 23.8906 126.82 23.9531V26.2266ZM135.102 28.7031H129.883C129.966 29.8646 130.698 30.4453 132.078 30.4453C132.958 30.4453 133.732 30.237 134.398 29.8203V31.6016C133.659 31.9974 132.698 32.1953 131.516 32.1953C130.224 32.1953 129.221 31.8385 128.508 31.125C127.794 30.4062 127.438 29.4062 127.438 28.125C127.438 26.7969 127.823 25.7448 128.594 24.9688C129.365 24.1927 130.312 23.8047 131.438 23.8047C132.604 23.8047 133.505 24.151 134.141 24.8438C134.781 25.5365 135.102 26.4766 135.102 27.6641V28.7031ZM132.812 27.1875C132.812 26.0417 132.349 25.4688 131.422 25.4688C131.026 25.4688 130.682 25.6328 130.391 25.9609C130.104 26.2891 129.93 26.6979 129.867 27.1875H132.812Z" fill="white"/>
</svg>
