<svg width="151" height="44" viewBox="0 0 151 44" fill="none" xmlns="http://www.w3.org/2000/svg">
<g filter="url(#filter0_d_2_930)">
<path d="M4.72266 26.0332V20.4082C5.74219 21.2637 6.84961 21.9082 8.04492 22.3418C9.24023 22.7637 10.4473 22.9746 11.666 22.9746C12.3809 22.9746 13.002 22.9102 13.5293 22.7812C14.0684 22.6523 14.5137 22.4766 14.8652 22.2539C15.2285 22.0195 15.498 21.75 15.6738 21.4453C15.8496 21.1289 15.9375 20.7891 15.9375 20.4258C15.9375 19.9336 15.7969 19.4941 15.5156 19.1074C15.2344 18.7207 14.8477 18.3633 14.3555 18.0352C13.875 17.707 13.3008 17.3906 12.6328 17.0859C11.9648 16.7812 11.2441 16.4707 10.4707 16.1543C8.50195 15.334 7.03125 14.332 6.05859 13.1484C5.09766 11.9648 4.61719 10.5352 4.61719 8.85938C4.61719 7.54688 4.88086 6.42188 5.4082 5.48438C5.93555 4.53516 6.65039 3.75586 7.55273 3.14648C8.4668 2.53711 9.52148 2.0918 10.7168 1.81055C11.9121 1.51758 13.1777 1.37109 14.5137 1.37109C15.8262 1.37109 16.9863 1.45313 17.9941 1.61719C19.0137 1.76953 19.9512 2.00977 20.8066 2.33789V7.59375C20.3848 7.30078 19.9219 7.04297 19.418 6.82031C18.9258 6.59766 18.416 6.41602 17.8887 6.27539C17.3613 6.12305 16.834 6.01172 16.3066 5.94141C15.791 5.87109 15.2988 5.83594 14.8301 5.83594C14.1855 5.83594 13.5996 5.90039 13.0723 6.0293C12.5449 6.14648 12.0996 6.31641 11.7363 6.53906C11.373 6.76172 11.0918 7.03125 10.8926 7.34766C10.6934 7.65234 10.5938 7.99805 10.5938 8.38477C10.5938 8.80664 10.7051 9.1875 10.9277 9.52734C11.1504 9.85547 11.4668 10.1719 11.877 10.4766C12.2871 10.7695 12.7852 11.0625 13.3711 11.3555C13.957 11.6367 14.6191 11.9297 15.3574 12.2344C16.3652 12.6562 17.2676 13.1074 18.0645 13.5879C18.873 14.0566 19.5645 14.5898 20.1387 15.1875C20.7129 15.7852 21.1523 16.4707 21.457 17.2441C21.7617 18.0059 21.9141 18.8965 21.9141 19.916C21.9141 21.3223 21.6445 22.5059 21.1055 23.4668C20.5781 24.416 19.8574 25.1895 18.9434 25.7871C18.0293 26.373 16.9629 26.7949 15.7441 27.0527C14.5371 27.3105 13.2598 27.4395 11.9121 27.4395C10.5293 27.4395 9.21094 27.3223 7.95703 27.0879C6.71484 26.8535 5.63672 26.502 4.72266 26.0332ZM34.0957 27.4395C31.0957 27.4395 28.7344 26.6016 27.0117 24.9258C25.3008 23.2383 24.4453 20.9531 24.4453 18.0703C24.4453 15.0938 25.3359 12.7676 27.1172 11.0918C28.8984 9.4043 31.3066 8.56055 34.3418 8.56055C37.3301 8.56055 39.6738 9.4043 41.373 11.0918C43.0723 12.7676 43.9219 14.9883 43.9219 17.7539C43.9219 20.7422 43.043 23.1035 41.2852 24.8379C39.5391 26.5723 37.1426 27.4395 34.0957 27.4395ZM34.2363 12.8145C32.9238 12.8145 31.9043 13.2656 31.1777 14.168C30.4512 15.0703 30.0879 16.3477 30.0879 18C30.0879 21.457 31.4824 23.1855 34.2715 23.1855C36.9316 23.1855 38.2617 21.4102 38.2617 17.8594C38.2617 14.4961 36.9199 12.8145 34.2363 12.8145ZM61.166 26.3496C59.9121 27.0762 58.1016 27.4395 55.7344 27.4395C52.9688 27.4395 50.7305 26.6016 49.0195 24.9258C47.3086 23.25 46.4531 21.0879 46.4531 18.4395C46.4531 15.3809 47.3672 12.9727 49.1953 11.2148C51.0352 9.44531 53.4902 8.56055 56.5605 8.56055C58.6816 8.56055 60.2168 8.8418 61.166 9.4043V14.1152C60.0059 13.248 58.7109 12.8145 57.2812 12.8145C55.6875 12.8145 54.4219 13.2832 53.4844 14.2207C52.5586 15.1465 52.0957 16.4297 52.0957 18.0703C52.0957 19.6641 52.541 20.918 53.4316 21.832C54.3223 22.7344 55.5469 23.1855 57.1055 23.1855C58.4883 23.1855 59.8418 22.752 61.166 21.8848V26.3496ZM67.6348 6.15234C66.6973 6.15234 65.9297 5.87695 65.332 5.32617C64.7344 4.76367 64.4355 4.07812 64.4355 3.26953C64.4355 2.4375 64.7344 1.75781 65.332 1.23047C65.9297 0.703125 66.6973 0.439453 67.6348 0.439453C68.584 0.439453 69.3516 0.703125 69.9375 1.23047C70.5352 1.75781 70.834 2.4375 70.834 3.26953C70.834 4.11328 70.5352 4.80469 69.9375 5.34375C69.3516 5.88281 68.584 6.15234 67.6348 6.15234ZM70.377 27H64.8223V9H70.377V27ZM91.2246 19.582H79.4824C79.6699 22.1953 81.3164 23.502 84.4219 23.502C86.4023 23.502 88.1426 23.0332 89.6426 22.0957V26.1035C87.9785 26.9941 85.8164 27.4395 83.1562 27.4395C80.25 27.4395 77.9941 26.6367 76.3887 25.0312C74.7832 23.4141 73.9805 21.1641 73.9805 18.2812C73.9805 15.293 74.8477 12.9258 76.582 11.1797C78.3164 9.43359 80.4492 8.56055 82.9805 8.56055C85.6055 8.56055 87.6328 9.33984 89.0625 10.8984C90.5039 12.457 91.2246 14.5723 91.2246 17.2441V19.582ZM86.0742 16.1719C86.0742 13.5938 85.0312 12.3047 82.9453 12.3047C82.0547 12.3047 81.2812 12.6738 80.625 13.4121C79.9805 14.1504 79.5879 15.0703 79.4473 16.1719H86.0742ZM100.084 27H94.5293V0.351562H100.084V27ZM107.572 6.15234C106.635 6.15234 105.867 5.87695 105.27 5.32617C104.672 4.76367 104.373 4.07812 104.373 3.26953C104.373 2.4375 104.672 1.75781 105.27 1.23047C105.867 0.703125 106.635 0.439453 107.572 0.439453C108.521 0.439453 109.289 0.703125 109.875 1.23047C110.473 1.75781 110.771 2.4375 110.771 3.26953C110.771 4.11328 110.473 4.80469 109.875 5.34375C109.289 5.88281 108.521 6.15234 107.572 6.15234ZM110.314 27H104.76V9H110.314V27ZM125.871 26.7891C125.051 27.2227 123.814 27.4395 122.162 27.4395C118.248 27.4395 116.291 25.4062 116.291 21.3398V13.0957H113.373V9H116.291V5.11523L121.828 3.5332V9H125.871V13.0957H121.828V20.373C121.828 22.248 122.572 23.1855 124.061 23.1855C124.646 23.1855 125.25 23.0156 125.871 22.6758V26.7891ZM146.156 9L138.844 28.4414C137.086 33.1172 134.438 35.4551 130.898 35.4551C129.551 35.4551 128.443 35.3027 127.576 34.998V30.5684C128.314 31.002 129.117 31.2188 129.984 31.2188C131.414 31.2188 132.41 30.5449 132.973 29.1973L133.922 26.9648L126.609 9H132.762L136.119 19.9512C136.33 20.6309 136.494 21.4336 136.611 22.3594H136.682C136.787 21.6797 136.98 20.8887 137.262 19.9863L140.654 9H146.156Z" fill="#4579CB"/>
<path d="M4.72266 26.0332H3.72266V26.6442L4.26634 26.923L4.72266 26.0332ZM4.72266 20.4082L5.36544 19.6422L3.72266 18.2637V20.4082H4.72266ZM8.04492 22.3418L7.70391 23.2819L7.7121 23.2848L8.04492 22.3418ZM13.5293 22.7812L13.2967 21.8087L13.2918 21.8099L13.5293 22.7812ZM14.8652 22.2539L15.4003 23.0988L15.4074 23.0942L14.8652 22.2539ZM15.6738 21.4453L16.54 21.945L16.5441 21.938L16.548 21.931L15.6738 21.4453ZM14.3555 18.0352L13.7915 18.861L13.8008 18.8672L14.3555 18.0352ZM10.4707 16.1543L10.0861 17.0774L10.0921 17.0798L10.4707 16.1543ZM6.05859 13.1484L5.28223 13.7788L5.286 13.7833L6.05859 13.1484ZM5.4082 5.48438L6.27979 5.97464L6.28236 5.97002L5.4082 5.48438ZM7.55273 3.14648L6.99802 2.31442L6.99308 2.31776L7.55273 3.14648ZM10.7168 1.81055L10.9458 2.78401L10.9548 2.7818L10.7168 1.81055ZM17.9941 1.61719L17.8335 2.60428L17.8464 2.60621L17.9941 1.61719ZM20.8066 2.33789H21.8066V1.65042L21.1648 1.40422L20.8066 2.33789ZM20.8066 7.59375L20.2362 8.41512L21.8066 9.50567V7.59375H20.8066ZM19.418 6.82031L19.0058 7.73145L19.0138 7.735L19.418 6.82031ZM17.8887 6.27539L17.6111 7.2361L17.621 7.23897L17.631 7.24162L17.8887 6.27539ZM16.3066 5.94141L16.1715 6.93224L16.1745 6.93263L16.3066 5.94141ZM13.0723 6.0293L13.2892 7.00548L13.2995 7.0032L13.3097 7.0007L13.0723 6.0293ZM10.8926 7.34766L11.7295 7.89491L11.7342 7.88773L11.7388 7.88047L10.8926 7.34766ZM10.9277 9.52734L10.0913 10.0754L10.0957 10.0821L10.1003 10.0888L10.9277 9.52734ZM11.877 10.4766L11.2806 11.2793L11.2881 11.2849L11.2957 11.2903L11.877 10.4766ZM13.3711 11.3555L12.9239 12.2499L12.9311 12.2535L12.9384 12.257L13.3711 11.3555ZM15.3574 12.2344L15.7436 11.3119L15.7389 11.31L15.3574 12.2344ZM18.0645 13.5879L17.5481 14.4443L17.5555 14.4487L17.5629 14.453L18.0645 13.5879ZM21.457 17.2441L20.5266 17.6107L20.5286 17.6155L21.457 17.2441ZM21.1055 23.4668L20.2333 22.9775L20.2313 22.9812L21.1055 23.4668ZM18.9434 25.7871L19.483 26.629L19.4906 26.6241L18.9434 25.7871ZM15.7441 27.0527L15.5372 26.0744L15.5353 26.0748L15.7441 27.0527ZM7.95703 27.0879L7.77162 28.0706L7.7733 28.0709L7.95703 27.0879ZM5.72266 26.0332V20.4082H3.72266V26.0332H5.72266ZM4.07988 21.1743C5.18481 22.1014 6.39353 22.8065 7.70392 23.2819L8.38592 21.4017C7.30569 21.0099 6.29956 20.426 5.36544 19.6422L4.07988 21.1743ZM7.7121 23.2848C9.00999 23.7429 10.3294 23.9746 11.666 23.9746V21.9746C10.5651 21.9746 9.47048 21.7845 8.37774 21.3988L7.7121 23.2848ZM11.666 23.9746C12.4372 23.9746 13.1417 23.9054 13.7668 23.7526L13.2918 21.8099C12.8622 21.9149 12.3245 21.9746 11.666 21.9746V23.9746ZM13.7619 23.7538C14.3748 23.6073 14.9305 23.3963 15.4003 23.0987L14.3302 21.4091C14.0968 21.5569 13.762 21.6974 13.2967 21.8087L13.7619 23.7538ZM15.4074 23.0942C15.8741 22.7931 16.2687 22.4154 16.54 21.945L14.8076 20.9456C14.7274 21.0846 14.5829 21.246 14.3231 21.4136L15.4074 23.0942ZM16.548 21.931C16.8066 21.4654 16.9375 20.9584 16.9375 20.4258H14.9375C14.9375 20.6198 14.8926 20.7924 14.7997 20.9597L16.548 21.931ZM16.9375 20.4258C16.9375 19.7289 16.7338 19.0822 16.3244 18.5193L14.7069 19.6956C14.86 19.9061 14.9375 20.1383 14.9375 20.4258H16.9375ZM16.3244 18.5193C15.9592 18.0172 15.4783 17.5819 14.9102 17.2031L13.8008 18.8672C14.217 19.1447 14.5095 19.4242 14.7069 19.6956L16.3244 18.5193ZM14.9194 17.2094C14.3815 16.842 13.7549 16.4987 13.0478 16.1761L12.2178 17.9958C12.8466 18.2826 13.3685 18.5721 13.7915 18.861L14.9194 17.2094ZM13.0478 16.1761C12.3663 15.8653 11.6334 15.5495 10.8493 15.2288L10.0921 17.0798C10.8549 17.3919 11.5634 17.6972 12.2178 17.9958L13.0478 16.1761ZM10.8553 15.2312C8.98153 14.4505 7.66735 13.531 6.83119 12.5135L5.286 13.7833C6.39515 15.133 8.02238 16.2175 10.0861 17.0774L10.8553 15.2312ZM6.83494 12.5181C6.03328 11.5307 5.61719 10.3299 5.61719 8.85938H3.61719C3.61719 10.7404 4.16203 12.399 5.28224 13.7787L6.83494 12.5181ZM5.61719 8.85938C5.61719 7.68104 5.85331 6.7328 6.27978 5.97464L4.53663 4.99411C3.90841 6.11095 3.61719 7.41271 3.61719 8.85938H5.61719ZM6.28236 5.97002C6.7331 5.15869 7.34003 4.4968 8.11239 3.97521L6.99308 2.31776C5.96075 3.01492 5.138 3.91162 4.53405 4.99873L6.28236 5.97002ZM8.10743 3.97853C8.91125 3.44266 9.85304 3.04109 10.9458 2.78396L10.4878 0.83713C9.18993 1.1425 8.02234 1.63156 6.99803 2.31443L8.10743 3.97853ZM10.9548 2.7818C12.0659 2.50948 13.2512 2.37109 14.5137 2.37109V0.371094C13.1043 0.371094 11.7583 0.52568 10.4787 0.839294L10.9548 2.7818ZM14.5137 2.37109C15.7867 2.37109 16.8913 2.45082 17.8335 2.60419L18.1548 0.63018C17.0814 0.455435 15.8656 0.371094 14.5137 0.371094V2.37109ZM17.8464 2.60621C18.8028 2.74912 19.6688 2.97248 20.4485 3.27157L21.1648 1.40422C20.2336 1.04705 19.2246 0.789944 18.1419 0.628168L17.8464 2.60621ZM19.8066 2.33789V7.59375H21.8066V2.33789H19.8066ZM21.377 6.77238C20.8992 6.44057 20.3801 6.15218 19.8221 5.90563L19.0138 7.735C19.4636 7.93376 19.8703 8.161 20.2362 8.41512L21.377 6.77238ZM19.8301 5.9092C19.2875 5.66374 18.7261 5.46375 18.1463 5.30916L17.631 7.24162C18.106 7.36828 18.564 7.53157 19.0058 7.73142L19.8301 5.9092ZM18.1662 5.31468C17.5927 5.14901 17.0168 5.02725 16.4388 4.95018L16.1745 6.93263C16.6511 6.99619 17.1299 7.09709 17.6111 7.2361L18.1662 5.31468ZM16.4418 4.95058C15.8862 4.87481 15.3486 4.83594 14.8301 4.83594V6.83594C15.249 6.83594 15.6959 6.86737 16.1715 6.93224L16.4418 4.95058ZM14.8301 4.83594C14.12 4.83594 13.4528 4.90685 12.8348 5.0579L13.3097 7.0007C13.7465 6.89394 14.2511 6.83594 14.8301 6.83594V4.83594ZM12.8553 5.05311C12.2476 5.18817 11.6928 5.39287 11.2138 5.68646L12.2589 7.39166C12.5064 7.23994 12.8423 7.1048 13.2892 7.00548L12.8553 5.05311ZM11.2138 5.68646C10.7378 5.97817 10.3382 6.35131 10.0463 6.81484L11.7388 7.88047C11.8454 7.71119 12.0083 7.54527 12.2589 7.39166L11.2138 5.68646ZM10.0556 6.80041C9.74326 7.27811 9.59375 7.81637 9.59375 8.38477H11.5938C11.5938 8.17972 11.6435 8.02658 11.7295 7.89491L10.0556 6.80041ZM9.59375 8.38477C9.59375 8.99345 9.75767 9.56619 10.0913 10.0754L11.7642 8.97932C11.6525 8.80881 11.5938 8.61983 11.5938 8.38477H9.59375ZM10.1003 10.0888C10.4011 10.5322 10.8051 10.926 11.2806 11.2793L12.4733 9.67382C12.1285 9.41771 11.8997 9.17877 11.7552 8.96584L10.1003 10.0888ZM11.2957 11.2903C11.7588 11.6211 12.3043 11.9401 12.9239 12.2499L13.8183 10.461C13.2661 10.1849 12.8154 9.91801 12.4582 9.66283L11.2957 11.2903ZM12.9384 12.257C13.5445 12.5479 14.2241 12.8485 14.9759 13.1587L15.7389 11.31C15.0142 11.0109 14.3696 10.7255 13.8038 10.4539L12.9384 12.257ZM14.9713 13.1568C15.9417 13.563 16.7994 13.9929 17.5481 14.4443L18.5808 12.7315C17.7357 12.222 16.7888 11.7495 15.7436 11.3119L14.9713 13.1568ZM17.5629 14.453C18.3008 14.8808 18.9158 15.3581 19.4176 15.8803L20.8598 14.4947C20.2131 13.8216 19.4453 13.2325 18.566 12.7227L17.5629 14.453ZM19.4176 15.8803C19.9011 16.3836 20.2696 16.9582 20.5266 17.6107L22.3874 16.8776C22.0351 15.9832 21.5247 15.1867 20.8598 14.4947L19.4176 15.8803ZM20.5286 17.6155C20.7761 18.2343 20.9141 18.9939 20.9141 19.916H22.9141C22.9141 18.7991 22.7474 17.7774 22.3855 16.8727L20.5286 17.6155ZM20.9141 19.916C20.9141 21.1973 20.6685 22.2018 20.2333 22.9775L21.9776 23.956C22.6206 22.8099 22.9141 21.4473 22.9141 19.916H20.9141ZM20.2313 22.9812C19.7833 23.7876 19.1751 24.4408 18.3961 24.9501L19.4906 26.6241C20.5397 25.9381 21.373 25.0444 21.9796 23.9524L20.2313 22.9812ZM18.4037 24.9452C17.6052 25.4571 16.6549 25.8379 15.5372 26.0744L15.9511 28.0311C17.2709 27.7519 18.4534 27.289 19.483 26.629L18.4037 24.9452ZM15.5353 26.0748C14.4028 26.3167 13.1959 26.4395 11.9121 26.4395V28.4395C13.3236 28.4395 14.6714 28.3044 15.953 28.0307L15.5353 26.0748ZM11.9121 26.4395C10.5858 26.4395 9.32926 26.3271 8.14077 26.1049L7.7733 28.0709C9.09261 28.3175 10.4728 28.4395 11.9121 28.4395V26.4395ZM8.14244 26.1052C6.97372 25.8847 5.99065 25.5596 5.17897 25.1434L4.26634 26.923C5.28278 27.4443 6.45597 27.8223 7.77162 28.0706L8.14244 26.1052ZM27.0117 24.9258L26.3095 25.6378L26.3144 25.6426L27.0117 24.9258ZM27.1172 11.0918L27.8024 11.8201L27.8049 11.8177L27.1172 11.0918ZM41.373 11.0918L40.6684 11.8013L40.6709 11.8038L41.373 11.0918ZM41.2852 24.8379L40.5828 24.126L40.5804 24.1284L41.2852 24.8379ZM34.0957 26.4395C31.2881 26.4395 29.2013 25.6607 27.709 24.209L26.3144 25.6426C28.2674 27.5424 30.9033 28.4395 34.0957 28.4395V26.4395ZM27.7139 24.2138C26.2308 22.751 25.4453 20.7428 25.4453 18.0703H23.4453C23.4453 21.1634 24.3708 23.7256 26.3095 25.6377L27.7139 24.2138ZM25.4453 18.0703C25.4453 15.3051 26.2646 13.2669 27.8024 11.8201L26.432 10.3635C24.4073 12.2682 23.4453 14.8824 23.4453 18.0703H25.4453ZM27.8049 11.8177C29.3588 10.3456 31.4988 9.56055 34.3418 9.56055V7.56055C31.1145 7.56055 28.4381 8.46295 26.4294 10.3658L27.8049 11.8177ZM34.3418 9.56055C37.1351 9.56055 39.2004 10.3435 40.6684 11.8013L42.0777 10.3822C40.1473 8.46511 37.525 7.56055 34.3418 7.56055V9.56055ZM40.6709 11.8038C42.149 13.2616 42.9219 15.2098 42.9219 17.7539H44.9219C44.9219 14.7668 43.9955 12.2736 42.0752 10.3798L40.6709 11.8038ZM42.9219 17.7539C42.9219 20.5348 42.1113 22.618 40.5828 24.1261L41.9875 25.5497C43.9747 23.589 44.9219 20.9496 44.9219 17.7539H42.9219ZM40.5804 24.1284C39.0641 25.6345 36.9451 26.4395 34.0957 26.4395V28.4395C37.3401 28.4395 40.014 27.51 41.9899 25.5474L40.5804 24.1284ZM34.2363 11.8145C32.6666 11.8145 31.342 12.3694 30.3988 13.5408L31.9566 14.7951C32.4666 14.1618 33.1811 13.8145 34.2363 13.8145V11.8145ZM30.3988 13.5408C29.4792 14.683 29.0879 16.2146 29.0879 18H31.0879C31.0879 16.4807 31.4232 15.4577 31.9566 14.7951L30.3988 13.5408ZM29.0879 18C29.0879 19.8368 29.4541 21.3998 30.3555 22.5171C31.29 23.6754 32.6592 24.1855 34.2715 24.1855V22.1855C33.0948 22.1855 32.3721 21.8315 31.9121 21.2613C31.4189 20.65 31.0879 19.6202 31.0879 18H29.0879ZM34.2715 24.1855C35.846 24.1855 37.172 23.6449 38.0645 22.4536C38.9163 21.3166 39.2617 19.7308 39.2617 17.8594H37.2617C37.2617 19.5388 36.9421 20.6161 36.4638 21.2544C36.0263 21.8385 35.3572 22.1855 34.2715 22.1855V24.1855ZM39.2617 17.8594C39.2617 16.0713 38.9095 14.5454 38.037 13.452C37.1302 12.3155 35.7997 11.8145 34.2363 11.8145V13.8145C35.3565 13.8145 36.0387 14.1542 36.4737 14.6994C36.9431 15.2876 37.2617 16.2841 37.2617 17.8594H39.2617ZM61.166 26.3496L61.6674 27.2149L62.166 26.9259V26.3496H61.166ZM49.1953 11.2148L49.8884 11.9357L49.8885 11.9356L49.1953 11.2148ZM61.166 9.4043H62.166V8.83449L61.6758 8.544L61.166 9.4043ZM61.166 14.1152L60.5673 14.9162L62.166 16.1112V14.1152H61.166ZM53.4316 21.832L52.7154 22.5299L52.7199 22.5345L53.4316 21.832ZM61.166 21.8848H62.166V20.0346L60.6182 21.0482L61.166 21.8848ZM60.6647 25.4844C59.6309 26.0834 58.0253 26.4395 55.7344 26.4395V28.4395C58.1778 28.4395 60.1933 28.069 61.6674 27.2149L60.6647 25.4844ZM55.7344 26.4395C53.1866 26.4395 51.2142 25.6756 49.7193 24.2114L48.3198 25.6402C50.2467 27.5275 52.7509 28.4395 55.7344 28.4395V26.4395ZM49.7193 24.2114C48.2216 22.7445 47.4531 20.8504 47.4531 18.4395H45.4531C45.4531 21.3254 46.3955 23.7555 48.3198 25.6402L49.7193 24.2114ZM47.4531 18.4395C47.4531 15.5926 48.2959 13.4669 49.8884 11.9357L48.5022 10.494C46.4384 12.4784 45.4531 15.1691 45.4531 18.4395H47.4531ZM49.8885 11.9356C51.5054 10.3805 53.693 9.56055 56.5605 9.56055V7.56055C53.2875 7.56055 50.5649 8.51017 48.5021 10.4941L49.8885 11.9356ZM56.5605 9.56055C58.6402 9.56055 59.9477 9.84471 60.6562 10.2646L61.6758 8.544C60.4859 7.83888 58.7231 7.56055 56.5605 7.56055V9.56055ZM60.166 9.4043V14.1152H62.166V9.4043H60.166ZM61.7647 13.3143C60.4341 12.3197 58.9298 11.8145 57.2812 11.8145V13.8145C58.4921 13.8145 59.5776 14.1764 60.5673 14.9162L61.7647 13.3143ZM57.2812 11.8145C55.4796 11.8145 53.9393 12.3516 52.7773 13.5136L54.1915 14.9278C54.9045 14.2148 55.8954 13.8145 57.2812 13.8145V11.8145ZM52.7773 13.5136C51.6192 14.6717 51.0957 16.2353 51.0957 18.0703H53.0957C53.0957 16.6241 53.498 15.6213 54.1915 14.9278L52.7773 13.5136ZM51.0957 18.0703C51.0957 19.8565 51.6002 21.3853 52.7154 22.5299L54.1479 21.1342C53.4818 20.4506 53.0957 19.4716 53.0957 18.0703H51.0957ZM52.7199 22.5345C53.8398 23.6691 55.3447 24.1855 57.1055 24.1855V22.1855C55.7491 22.1855 54.8047 21.7996 54.1434 21.1296L52.7199 22.5345ZM57.1055 24.1855C58.71 24.1855 60.251 23.6793 61.7139 22.7213L60.6182 21.0482C59.4326 21.8246 58.2666 22.1855 57.1055 22.1855V24.1855ZM60.166 21.8848V26.3496H62.166V21.8848H60.166ZM65.332 5.32617L64.6466 6.05441L64.6544 6.06153L65.332 5.32617ZM69.9375 1.23047L69.2685 1.9738L69.2759 1.98031L69.9375 1.23047ZM69.9375 5.34375L69.2677 4.60114L69.2604 4.60782L69.9375 5.34375ZM70.377 27V28H71.377V27H70.377ZM64.8223 27H63.8223V28H64.8223V27ZM64.8223 9V8H63.8223V9H64.8223ZM70.377 9H71.377V8H70.377V9ZM67.6348 5.15234C66.9071 5.15234 66.3945 4.9454 66.0097 4.59082L64.6544 6.06153C65.4649 6.80851 66.4874 7.15234 67.6348 7.15234V5.15234ZM66.0174 4.59797C65.6171 4.22123 65.4355 3.79774 65.4355 3.26953H63.4355C63.4355 4.35851 63.8516 5.30611 64.6467 6.05437L66.0174 4.59797ZM65.4355 3.26953C65.4355 2.71009 65.6217 2.30854 65.9937 1.98031L64.6704 0.480631C63.8471 1.20708 63.4355 2.16491 63.4355 3.26953H65.4355ZM65.9937 1.98031C66.3772 1.64186 66.8955 1.43945 67.6348 1.43945V-0.560547C66.499 -0.560547 65.4822 -0.235612 64.6704 0.480631L65.9937 1.98031ZM67.6348 1.43945C68.39 1.43945 68.9022 1.64404 69.2685 1.97376L70.6065 0.487175C69.8009 -0.237793 68.778 -0.560547 67.6348 -0.560547V1.43945ZM69.2759 1.98031C69.6479 2.30854 69.834 2.71009 69.834 3.26953H71.834C71.834 2.16491 71.4224 1.20708 70.5991 0.480631L69.2759 1.98031ZM69.834 3.26953C69.834 3.84566 69.6439 4.26187 69.2677 4.60118L70.6073 6.08632C71.4264 5.34751 71.834 4.3809 71.834 3.26953H69.834ZM69.2604 4.60782C68.8935 4.9454 68.3842 5.15234 67.6348 5.15234V7.15234C68.7837 7.15234 69.8096 6.82022 70.6146 6.07968L69.2604 4.60782ZM70.377 26H64.8223V28H70.377V26ZM65.8223 27V9H63.8223V27H65.8223ZM64.8223 10H70.377V8H64.8223V10ZM69.377 9V27H71.377V9H69.377ZM91.2246 19.582V20.582H92.2246V19.582H91.2246ZM79.4824 19.582V18.582H78.4081L78.485 19.6536L79.4824 19.582ZM89.6426 22.0957H90.6426V20.2915L89.1126 21.2477L89.6426 22.0957ZM89.6426 26.1035L90.1145 26.9852L90.6426 26.7025V26.1035H89.6426ZM76.3887 25.0312L75.679 25.7358L75.6816 25.7384L76.3887 25.0312ZM89.0625 10.8984L88.3256 11.5744L88.3283 11.5774L89.0625 10.8984ZM86.0742 16.1719V17.1719H87.0742V16.1719H86.0742ZM80.625 13.4121L79.8776 12.7477L79.8717 12.7545L80.625 13.4121ZM79.4473 16.1719L78.4553 16.0452L78.3115 17.1719H79.4473V16.1719ZM91.2246 18.582H79.4824V20.582H91.2246V18.582ZM78.485 19.6536C78.5935 21.1658 79.1417 22.4366 80.2363 23.3053C81.3033 24.1521 82.7472 24.502 84.4219 24.502V22.502C82.9911 22.502 82.059 22.1985 81.4795 21.7387C80.9277 21.3007 80.5589 20.6115 80.4799 19.5105L78.485 19.6536ZM84.4219 24.502C86.5667 24.502 88.4951 23.9921 90.1726 22.9437L89.1126 21.2477C87.79 22.0743 86.238 22.502 84.4219 22.502V24.502ZM88.6426 22.0957V26.1035H90.6426V22.0957H88.6426ZM89.1707 25.2219C87.699 26.0095 85.7153 26.4395 83.1562 26.4395V28.4395C85.9175 28.4395 88.258 27.9788 90.1145 26.9852L89.1707 25.2219ZM83.1562 26.4395C80.4374 26.4395 78.465 25.6934 77.0958 24.3241L75.6816 25.7384C77.5232 27.58 80.0626 28.4395 83.1562 28.4395V26.4395ZM77.0983 24.3267C75.7249 22.9433 74.9805 20.9736 74.9805 18.2812H72.9805C72.9805 21.3545 73.8415 23.8849 75.679 25.7358L77.0983 24.3267ZM74.9805 18.2812C74.9805 15.4968 75.7818 13.4044 77.2915 11.8844L75.8726 10.475C73.9135 12.4472 72.9805 15.0892 72.9805 18.2812H74.9805ZM77.2915 11.8844C78.8323 10.3333 80.7071 9.56055 82.9805 9.56055V7.56055C80.1913 7.56055 77.8006 8.53393 75.8726 10.475L77.2915 11.8844ZM82.9805 9.56055C85.3978 9.56055 87.1293 10.2703 88.3256 11.5744L89.7994 10.2225C88.1363 8.4094 85.8131 7.56055 82.9805 7.56055V9.56055ZM88.3283 11.5774C89.5578 12.9068 90.2246 14.7562 90.2246 17.2441H92.2246C92.2246 14.3883 91.45 12.0072 89.7967 10.2195L88.3283 11.5774ZM90.2246 17.2441V19.582H92.2246V17.2441H90.2246ZM87.0742 16.1719C87.0742 14.774 86.7957 13.5401 86.0694 12.6425C85.3103 11.7043 84.2051 11.3047 82.9453 11.3047V13.3047C83.7715 13.3047 84.2307 13.5496 84.5146 13.9005C84.8313 14.2919 85.0742 14.9917 85.0742 16.1719H87.0742ZM82.9453 11.3047C81.736 11.3047 80.7005 11.822 79.8776 12.7477L81.3724 14.0765C81.862 13.5257 82.3734 13.3047 82.9453 13.3047V11.3047ZM79.8717 12.7545C79.0798 13.6615 78.6176 14.774 78.4553 16.0452L80.4392 16.2985C80.5582 15.3666 80.8811 14.6393 81.3783 14.0698L79.8717 12.7545ZM79.4473 17.1719H86.0742V15.1719H79.4473V17.1719ZM100.084 27V28H101.084V27H100.084ZM94.5293 27H93.5293V28H94.5293V27ZM94.5293 0.351562V-0.648438H93.5293V0.351562H94.5293ZM100.084 0.351562H101.084V-0.648438H100.084V0.351562ZM100.084 26H94.5293V28H100.084V26ZM95.5293 27V0.351562H93.5293V27H95.5293ZM94.5293 1.35156H100.084V-0.648438H94.5293V1.35156ZM99.084 0.351562V27H101.084V0.351562H99.084ZM105.27 5.32617L104.584 6.05441L104.592 6.06153L105.27 5.32617ZM109.875 1.23047L109.206 1.9738L109.213 1.98031L109.875 1.23047ZM109.875 5.34375L109.205 4.60114L109.198 4.60782L109.875 5.34375ZM110.314 27V28H111.314V27H110.314ZM104.76 27H103.76V28H104.76V27ZM104.76 9V8H103.76V9H104.76ZM110.314 9H111.314V8H110.314V9ZM107.572 5.15234C106.845 5.15234 106.332 4.9454 105.947 4.59082L104.592 6.06153C105.402 6.80851 106.425 7.15234 107.572 7.15234V5.15234ZM105.955 4.59797C105.555 4.22123 105.373 3.79774 105.373 3.26953H103.373C103.373 4.35851 103.789 5.30611 104.584 6.05437L105.955 4.59797ZM105.373 3.26953C105.373 2.71009 105.559 2.30854 105.931 1.98031L104.608 0.480631C103.785 1.20708 103.373 2.16491 103.373 3.26953H105.373ZM105.931 1.98031C106.315 1.64186 106.833 1.43945 107.572 1.43945V-0.560547C106.437 -0.560547 105.42 -0.235612 104.608 0.480631L105.931 1.98031ZM107.572 1.43945C108.328 1.43945 108.84 1.64404 109.206 1.97376L110.544 0.487175C109.738 -0.237793 108.715 -0.560547 107.572 -0.560547V1.43945ZM109.213 1.98031C109.585 2.30854 109.771 2.71009 109.771 3.26953H111.771C111.771 2.16491 111.36 1.20708 110.537 0.480631L109.213 1.98031ZM109.771 3.26953C109.771 3.84566 109.581 4.26187 109.205 4.60118L110.545 6.08632C111.364 5.34751 111.771 4.3809 111.771 3.26953H109.771ZM109.198 4.60782C108.831 4.9454 108.322 5.15234 107.572 5.15234V7.15234C108.721 7.15234 109.747 6.82022 110.552 6.07968L109.198 4.60782ZM110.314 26H104.76V28H110.314V26ZM105.76 27V9H103.76V27H105.76ZM104.76 10H110.314V8H104.76V10ZM109.314 9V27H111.314V9H109.314ZM125.871 26.7891L126.338 27.6732L126.871 27.3916V26.7891H125.871ZM116.291 13.0957H117.291V12.0957H116.291V13.0957ZM113.373 13.0957H112.373V14.0957H113.373V13.0957ZM113.373 9V8H112.373V9H113.373ZM116.291 9V10H117.291V9H116.291ZM116.291 5.11523L116.016 4.15371L115.291 4.36093V5.11523H116.291ZM121.828 3.5332H122.828V2.20747L121.553 2.57168L121.828 3.5332ZM121.828 9H120.828V10H121.828V9ZM125.871 9H126.871V8H125.871V9ZM125.871 13.0957V14.0957H126.871V13.0957H125.871ZM121.828 13.0957V12.0957H120.828V13.0957H121.828ZM125.871 22.6758H126.871V20.9887L125.391 21.7985L125.871 22.6758ZM125.404 25.905C124.8 26.2241 123.76 26.4395 122.162 26.4395V28.4395C123.869 28.4395 125.302 28.2212 126.338 27.6732L125.404 25.905ZM122.162 26.4395C120.369 26.4395 119.206 25.9758 118.479 25.2211C117.746 24.4592 117.291 23.2283 117.291 21.3398H115.291C115.291 23.5178 115.815 25.3367 117.038 26.608C118.269 27.8865 120.041 28.4395 122.162 28.4395V26.4395ZM117.291 21.3398V13.0957H115.291V21.3398H117.291ZM116.291 12.0957H113.373V14.0957H116.291V12.0957ZM114.373 13.0957V9H112.373V13.0957H114.373ZM113.373 10H116.291V8H113.373V10ZM117.291 9V5.11523H115.291V9H117.291ZM116.566 6.07676L122.103 4.49473L121.553 2.57168L116.016 4.15371L116.566 6.07676ZM120.828 3.5332V9H122.828V3.5332H120.828ZM121.828 10H125.871V8H121.828V10ZM124.871 9V13.0957H126.871V9H124.871ZM125.871 12.0957H121.828V14.0957H125.871V12.0957ZM120.828 13.0957V20.373H122.828V13.0957H120.828ZM120.828 20.373C120.828 21.416 121.031 22.383 121.603 23.1041C122.21 23.8693 123.093 24.1855 124.061 24.1855V22.1855C123.54 22.1855 123.306 22.0331 123.169 21.8607C122.998 21.6443 122.828 21.2051 122.828 20.373H120.828ZM124.061 24.1855C124.846 24.1855 125.613 23.9567 126.351 23.553L125.391 21.7985C124.887 22.0745 124.447 22.1855 124.061 22.1855V24.1855ZM124.871 22.6758V26.7891H126.871V22.6758H124.871ZM146.156 9L147.092 9.35205L147.601 8H146.156V9ZM138.844 28.4414L137.908 28.0894L137.908 28.0895L138.844 28.4414ZM127.576 34.998H126.576V35.7066L127.245 35.9415L127.576 34.998ZM127.576 30.5684L128.083 29.7061L126.576 28.8214V30.5684H127.576ZM132.973 29.1973L132.052 28.806L132.05 28.8121L132.973 29.1973ZM133.922 26.9648L134.842 27.3561L135.005 26.9732L134.848 26.5878L133.922 26.9648ZM126.609 9V8H125.123L125.683 9.37701L126.609 9ZM132.762 9L133.718 8.70688L133.501 8H132.762V9ZM136.119 19.9512L135.163 20.2443L135.164 20.2476L136.119 19.9512ZM136.611 22.3594L135.619 22.485L135.73 23.3594H136.611V22.3594ZM136.682 22.3594V23.3594H137.538L137.67 22.5127L136.682 22.3594ZM137.262 19.9863L138.216 20.2839L138.217 20.2814L137.262 19.9863ZM140.654 9V8H139.917L139.699 8.70495L140.654 9ZM145.22 8.64795L137.908 28.0894L139.78 28.7935L147.092 9.35205L145.22 8.64795ZM137.908 28.0895C137.064 30.3339 136.039 31.9267 134.877 32.952C133.736 33.9593 132.425 34.4551 130.898 34.4551V36.4551C132.911 36.4551 134.694 35.7819 136.201 34.4514C137.688 33.1388 138.866 31.2246 139.78 28.7933L137.908 28.0895ZM130.898 34.4551C129.616 34.4551 128.631 34.3088 127.908 34.0546L127.245 35.9415C128.256 36.2967 129.486 36.4551 130.898 36.4551V34.4551ZM128.576 34.998V30.5684H126.576V34.998H128.576ZM127.07 31.4306C127.964 31.9556 128.942 32.2188 129.984 32.2188V30.2188C129.293 30.2188 128.665 30.0483 128.083 29.7061L127.07 31.4306ZM129.984 32.2188C130.86 32.2188 131.671 32.0102 132.364 31.5417C133.055 31.0741 133.555 30.3972 133.895 29.5825L132.05 28.8121C131.827 29.3449 131.548 29.6788 131.243 29.8851C130.94 30.0903 130.538 30.2188 129.984 30.2188V32.2188ZM133.893 29.5886L134.842 27.3561L133.002 26.5736L132.052 28.806L133.893 29.5886ZM134.848 26.5878L127.536 8.62299L125.683 9.37701L132.996 27.3419L134.848 26.5878ZM126.609 10H132.762V8H126.609V10ZM131.806 9.29312L135.163 20.2443L137.075 19.6581L133.718 8.70688L131.806 9.29312ZM135.164 20.2476C135.353 20.8574 135.507 21.6003 135.619 22.485L137.603 22.2338C137.481 21.2668 137.307 20.4043 137.074 19.6548L135.164 20.2476ZM136.611 23.3594H136.682V21.3594H136.611V23.3594ZM137.67 22.5127C137.766 21.8961 137.945 21.1552 138.216 20.2839L136.307 19.6888C136.016 20.6222 135.809 21.4633 135.693 22.206L137.67 22.5127ZM138.217 20.2814L141.61 9.29505L139.699 8.70495L136.306 19.6913L138.217 20.2814ZM140.654 10H146.156V8H140.654V10Z" fill="black"/>
</g>
<defs>
<filter id="filter0_d_2_930" x="0.617188" y="0.351562" width="149.539" height="43.1035" filterUnits="userSpaceOnUse" color-interpolation-filters="sRGB">
<feFlood flood-opacity="0" result="BackgroundImageFix"/>
<feColorMatrix in="SourceAlpha" type="matrix" values="0 0 0 0 0 0 0 0 0 0 0 0 0 0 0 0 0 0 127 0" result="hardAlpha"/>
<feOffset dy="4"/>
<feGaussianBlur stdDeviation="2"/>
<feComposite in2="hardAlpha" operator="out"/>
<feColorMatrix type="matrix" values="0 0 0 0 0 0 0 0 0 0 0 0 0 0 0 0 0 0 0.25 0"/>
<feBlend mode="normal" in2="BackgroundImageFix" result="effect1_dropShadow_2_930"/>
<feBlend mode="normal" in="SourceGraphic" in2="effect1_dropShadow_2_930" result="shape"/>
</filter>
</defs>
</svg>
